<svg xmlns="http://www.w3.org/2000/svg" xmlns:xlink="http://www.w3.org/1999/xlink" width="500" zoomAndPan="magnify" viewBox="0 0 375 374.999991" height="500" preserveAspectRatio="xMidYMid meet" version="1.0"><defs><clipPath id="9b9aa95ba2"><path d="M 36.121094 36.121094 L 338.878906 36.121094 L 338.878906 338.878906 L 36.121094 338.878906 Z M 36.121094 36.121094 " clip-rule="nonzero"/></clipPath><clipPath id="5a889e9f4e"><path d="M 187.5 36.121094 C 103.894531 36.121094 36.121094 103.894531 36.121094 187.5 C 36.121094 271.105469 103.894531 338.878906 187.5 338.878906 C 271.105469 338.878906 338.878906 271.105469 338.878906 187.5 C 338.878906 103.894531 271.105469 36.121094 187.5 36.121094 Z M 187.5 36.121094 " clip-rule="nonzero"/></clipPath><clipPath id="3444a6e449"><path d="M 53.585938 53.585938 L 321.335938 53.585938 L 321.335938 321.335938 L 53.585938 321.335938 Z M 53.585938 53.585938 " clip-rule="nonzero"/></clipPath><clipPath id="88021c6949"><path d="M 187.496094 53.585938 C 113.539062 53.585938 53.585938 113.539062 53.585938 187.496094 C 53.585938 261.453125 113.539062 321.40625 187.496094 321.40625 C 261.453125 321.40625 321.40625 261.453125 321.40625 187.496094 C 321.40625 113.539062 261.453125 53.585938 187.496094 53.585938 Z M 187.496094 53.585938 " clip-rule="nonzero"/></clipPath><clipPath id="d4afba31bf"><path d="M 77.25 77.25 L 297.738281 77.25 L 297.738281 297.738281 L 77.25 297.738281 Z M 77.25 77.25 " clip-rule="nonzero"/></clipPath><clipPath id="e987b27aed"><path d="M 187.496094 77.25 C 126.609375 77.25 77.25 126.609375 77.25 187.496094 C 77.25 248.382812 126.609375 297.738281 187.496094 297.738281 C 248.382812 297.738281 297.738281 248.382812 297.738281 187.496094 C 297.738281 126.609375 248.382812 77.25 187.496094 77.25 Z M 187.496094 77.25 " clip-rule="nonzero"/></clipPath><clipPath id="7219af886a"><path d="M 112.5 112.5 L 262.5 112.5 L 262.5 262.5 L 112.5 262.5 Z M 112.5 112.5 " clip-rule="nonzero"/></clipPath></defs><g clip-path="url(#9b9aa95ba2)"><g clip-path="url(#5a889e9f4e)"><path fill="#ff721b" d="M 36.121094 36.121094 L 338.878906 36.121094 L 338.878906 338.878906 L 36.121094 338.878906 Z M 36.121094 36.121094 " fill-opacity="1" fill-rule="nonzero"/></g></g><g clip-path="url(#3444a6e449)"><g clip-path="url(#88021c6949)"><path stroke-linecap="butt" transform="matrix(0.75, 0, 0, 0.75, 53.584556, 53.584552)" fill="none" stroke-linejoin="miter" d="M 178.548728 0.00184776 C 79.939347 0.00184776 0.00184176 79.939353 0.00184176 178.548734 C 0.00184176 277.158116 79.939347 357.095621 178.548728 357.095621 C 277.15811 357.095621 357.095615 277.158116 357.095615 178.548734 C 357.095615 79.939353 277.15811 0.00184776 178.548728 0.00184776 Z M 178.548728 0.00184776 " stroke="#000000" stroke-width="14" stroke-opacity="1" stroke-miterlimit="4"/></g></g><g clip-path="url(#d4afba31bf)"><g clip-path="url(#e987b27aed)"><path stroke-linecap="butt" transform="matrix(0.75, 0, 0, 0.75, 77.251838, 77.251833)" fill="none" stroke-linejoin="miter" d="M 146.992351 -0.00244444 C 65.810054 -0.00244444 -0.00245044 65.81006 -0.00245044 146.992357 C -0.00245044 228.174654 65.810054 293.98195 146.992351 293.98195 C 228.174648 293.98195 293.981944 228.174654 293.981944 146.992357 C 293.981944 65.81006 228.174648 -0.00244444 146.992351 -0.00244444 Z M 146.992351 -0.00244444 " stroke="#000000" stroke-width="86" stroke-opacity="1" stroke-miterlimit="4"/></g></g><g clip-path="url(#7219af886a)"><path fill="#060608" d="M 187.5 116.683594 C 148.453125 116.683594 116.683594 148.453125 116.683594 187.5 C 116.683594 226.546875 148.453125 258.316406 187.5 258.316406 C 226.546875 258.316406 258.316406 226.546875 258.316406 187.5 C 258.316406 148.453125 226.546875 116.683594 187.5 116.683594 Z M 187.5 262.5 C 146.144531 262.5 112.5 228.855469 112.5 187.5 C 112.5 146.144531 146.144531 112.5 187.5 112.5 C 228.855469 112.5 262.5 146.144531 262.5 187.5 C 262.5 228.855469 228.855469 262.5 187.5 262.5 " fill-opacity="1" fill-rule="nonzero"/></g><path fill="#060608" d="M 179.398438 168.441406 C 179.398438 177.789062 175.390625 185.367188 170.445312 185.367188 C 165.5 185.367188 161.492188 177.789062 161.492188 168.441406 C 161.492188 159.089844 165.5 151.511719 170.445312 151.511719 C 175.390625 151.511719 179.398438 159.089844 179.398438 168.441406 " fill-opacity="1" fill-rule="nonzero"/><path fill="#060608" d="M 213.507812 168.441406 C 213.507812 177.789062 209.5 185.367188 204.554688 185.367188 C 199.609375 185.367188 195.601562 177.789062 195.601562 168.441406 C 195.601562 159.089844 199.609375 151.511719 204.554688 151.511719 C 209.5 151.511719 213.507812 159.089844 213.507812 168.441406 " fill-opacity="1" fill-rule="nonzero"/><path fill="#060608" d="M 187.5 232.355469 C 160.015625 232.355469 137.65625 209.996094 137.65625 182.511719 C 137.65625 181.355469 138.589844 180.417969 139.746094 180.417969 C 140.902344 180.417969 141.839844 181.355469 141.839844 182.511719 C 141.839844 207.6875 162.324219 228.171875 187.5 228.171875 C 212.675781 228.171875 233.160156 207.6875 233.160156 182.511719 C 233.160156 181.355469 234.097656 180.417969 235.253906 180.417969 C 236.40625 180.417969 237.34375 181.355469 237.34375 182.511719 C 237.34375 209.996094 214.984375 232.355469 187.5 232.355469 " fill-opacity="1" fill-rule="nonzero"/></svg>