<svg xmlns="http://www.w3.org/2000/svg" xmlns:xlink="http://www.w3.org/1999/xlink" width="192" zoomAndPan="magnify" viewBox="0 0 144 143.999998" height="192" preserveAspectRatio="xMidYMid meet" version="1.0"><defs><clipPath id="5072800d43"><path d="M 0 0 L 143.75 0 L 143.75 143.75 L 0 143.75 Z M 0 0 " clip-rule="nonzero"/></clipPath><clipPath id="be80e14f74"><path d="M 71.875 0 C 32.179688 0 0 32.179688 0 71.875 C 0 111.570312 32.179688 143.75 71.875 143.75 C 111.570312 143.75 143.75 111.570312 143.75 71.875 C 143.75 32.179688 111.570312 0 71.875 0 Z M 71.875 0 " clip-rule="nonzero"/></clipPath><clipPath id="6c088d2e1e"><path d="M 0 0 L 143.746094 0 L 143.746094 143.746094 L 0 143.746094 Z M 0 0 " clip-rule="nonzero"/></clipPath><clipPath id="11ac55860c"><path d="M 71.871094 0 C 32.179688 0 0 32.179688 0 71.871094 C 0 111.566406 32.179688 143.746094 71.871094 143.746094 C 111.566406 143.746094 143.746094 111.566406 143.746094 71.871094 C 143.746094 32.179688 111.566406 0 71.871094 0 Z M 71.871094 0 " clip-rule="nonzero"/></clipPath><clipPath id="082185826e"><path d="M 41.699219 42 L 102.109375 42 L 102.109375 102.238281 L 41.699219 102.238281 Z M 41.699219 42 " clip-rule="nonzero"/></clipPath></defs><g clip-path="url(#5072800d43)"><g clip-path="url(#be80e14f74)"><path fill="#000000" d="M 0 0 L 143.75 0 L 143.75 143.75 L 0 143.75 Z M 0 0 " fill-opacity="1" fill-rule="nonzero"/></g></g><g clip-path="url(#6c088d2e1e)"><g clip-path="url(#11ac55860c)"><path fill="#000000" d="M 46.648438 23.40625 C 42.757812 25.4375 39.160156 27.902344 35.851562 30.808594 L 13.085938 4.886719 C 18.476562 0.152344 24.339844 -3.867188 30.683594 -7.179688 Z M 27.105469 40.566406 C 24.578125 44.167969 22.523438 48.007812 20.9375 52.089844 L -11.21875 39.589844 C -8.625 32.917969 -5.265625 26.640625 -1.144531 20.761719 Z M 17.710938 64.738281 C 17.402344 67.09375 17.25 69.472656 17.25 71.871094 C 17.25 73.890625 17.359375 75.890625 17.574219 77.878906 L -16.722656 81.617188 C -17.074219 78.386719 -17.25 75.136719 -17.25 71.871094 C -17.25 67.984375 -17 64.125 -16.503906 60.289062 Z M 20.539062 90.601562 C 22.042969 94.714844 24.015625 98.59375 26.464844 102.246094 L -2.1875 121.460938 C -6.1875 115.5 -9.414062 109.15625 -11.867188 102.429688 Z M 35.007812 112.179688 C 38.257812 115.152344 41.804688 117.695312 45.652344 119.808594 L 29.0625 150.054688 C 22.789062 146.613281 17.003906 142.472656 11.714844 137.628906 Z M 57.765625 124.660156 C 61.988281 125.785156 66.308594 126.394531 70.726562 126.484375 L 70.019531 160.976562 C 62.832031 160.828125 55.789062 159.835938 48.886719 158 Z M 83.785156 125.195312 C 88.0625 124.246094 92.164062 122.796875 96.09375 120.847656 L 111.417969 151.757812 C 104.988281 154.949219 98.269531 157.320312 91.265625 158.875 Z M 107.035156 113.675781 C 110.402344 110.839844 113.382812 107.648438 115.984375 104.097656 L 143.820312 124.480469 C 139.589844 130.253906 134.738281 135.449219 129.261719 140.0625 Z M 122.390625 92.699219 C 124.058594 88.652344 125.222656 84.464844 125.878906 80.128906 L 159.992188 85.285156 C 158.917969 92.378906 157.015625 99.242188 154.277344 105.867188 Z M 126.28125 66.988281 C 125.894531 62.609375 124.996094 58.347656 123.582031 54.207031 L 156.230469 43.058594 C 158.542969 49.832031 160.015625 56.800781 160.648438 63.957031 Z M 117.902344 42.445312 C 115.53125 38.746094 112.75 35.375 109.5625 32.335938 L 133.375 7.371094 C 138.558594 12.316406 143.082031 17.800781 146.945312 23.824219 Z M 99.078125 24.492188 C 95.273438 22.300781 91.269531 20.597656 87.0625 19.386719 L 96.632812 -13.761719 C 103.519531 -11.773438 110.070312 -8.988281 116.292969 -5.402344 Z M 74.160156 17.296875 C 73.398438 17.265625 72.636719 17.25 71.871094 17.25 C 67.445312 17.25 63.105469 17.769531 58.859375 18.804688 L 50.675781 -14.710938 C 57.613281 -16.402344 64.679688 -17.25 71.871094 -17.25 C 73.105469 -17.25 74.339844 -17.226562 75.570312 -17.175781 Z M 74.160156 17.296875 " fill-opacity="1" fill-rule="nonzero"/></g></g><g clip-path="url(#082185826e)"><path fill="#e65300" d="M 84.96875 102.351562 C 84.570312 102.351562 84.183594 102.273438 83.8125 102.121094 C 83.445312 101.96875 83.117188 101.75 82.835938 101.464844 C 82.550781 101.183594 82.335938 100.855469 82.179688 100.488281 C 82.027344 100.117188 81.953125 99.734375 81.953125 99.332031 L 81.953125 91.488281 C 82.046875 90.574219 81.953125 89.683594 81.667969 88.808594 C 81.382812 87.9375 80.9375 87.160156 80.320312 86.480469 C 79.9375 86.0625 79.691406 85.578125 79.582031 85.023438 C 79.472656 84.46875 79.511719 83.929688 79.707031 83.398438 C 79.898438 82.867188 80.21875 82.425781 80.660156 82.074219 C 81.101562 81.722656 81.601562 81.511719 82.164062 81.4375 C 89.523438 80.5625 96.316406 78.210938 96.316406 65.445312 C 96.316406 63.011719 95.644531 60.777344 94.292969 58.75 C 93.683594 57.835938 93.273438 56.839844 93.058594 55.761719 C 92.84375 54.6875 92.84375 53.609375 93.054688 52.53125 C 93.332031 51.113281 93.332031 49.695312 93.054688 48.277344 C 90.78125 49.046875 88.679688 50.140625 86.75 51.566406 C 86.382812 51.828125 85.976562 51.996094 85.53125 52.078125 C 85.089844 52.15625 84.648438 52.136719 84.214844 52.019531 C 81.492188 51.25 78.714844 50.863281 75.886719 50.863281 C 73.058594 50.863281 70.28125 51.25 67.558594 52.019531 C 67.125 52.136719 66.683594 52.15625 66.242188 52.078125 C 65.796875 51.996094 65.390625 51.828125 65.023438 51.566406 C 63.078125 50.125 60.957031 49.027344 58.65625 48.277344 C 58.367188 49.695312 58.367188 51.113281 58.65625 52.53125 C 58.855469 53.621094 58.839844 54.710938 58.617188 55.796875 C 58.390625 56.882812 57.972656 57.886719 57.359375 58.808594 C 56.015625 60.851562 55.34375 63.09375 55.335938 65.539062 C 55.335938 77.273438 61.011719 80.414062 69.519531 81.5 C 70.085938 81.570312 70.59375 81.785156 71.039062 82.144531 C 71.484375 82.503906 71.804688 82.953125 71.992188 83.492188 C 72.171875 84.015625 72.207031 84.546875 72.089844 85.085938 C 71.976562 85.628906 71.734375 86.101562 71.359375 86.507812 C 70.765625 87.144531 70.324219 87.871094 70.039062 88.6875 C 69.75 89.507812 69.636719 90.351562 69.699219 91.214844 L 69.699219 99.332031 C 69.699219 99.734375 69.625 100.117188 69.472656 100.488281 C 69.316406 100.855469 69.101562 101.183594 68.816406 101.464844 C 68.535156 101.75 68.207031 101.96875 67.839844 102.121094 C 67.46875 102.273438 67.082031 102.351562 66.683594 102.351562 C 66.28125 102.351562 65.898438 102.273438 65.527344 102.121094 C 65.160156 101.96875 64.832031 101.75 64.550781 101.464844 C 64.265625 101.183594 64.046875 100.855469 63.894531 100.488281 C 63.742188 100.117188 63.664062 99.734375 63.664062 99.332031 L 63.664062 97.613281 C 62.183594 97.785156 60.703125 97.769531 59.222656 97.574219 C 57.742188 97.378906 56.308594 97.007812 54.921875 96.457031 C 53.535156 95.90625 52.238281 95.195312 51.023438 94.324219 C 49.8125 93.453125 48.726562 92.445312 47.765625 91.304688 C 46.765625 90.199219 45.597656 89.316406 44.261719 88.652344 C 43.875 88.550781 43.519531 88.378906 43.199219 88.140625 C 42.878906 87.898438 42.617188 87.605469 42.414062 87.261719 C 42.210938 86.914062 42.082031 86.542969 42.023438 86.148438 C 41.96875 85.75 41.988281 85.359375 42.089844 84.96875 C 42.191406 84.582031 42.359375 84.226562 42.601562 83.90625 C 42.84375 83.585938 43.136719 83.324219 43.480469 83.121094 C 43.828125 82.917969 44.199219 82.785156 44.59375 82.730469 C 44.992188 82.675781 45.382812 82.695312 45.773438 82.796875 C 48.128906 83.65625 50.140625 85.023438 51.808594 86.902344 C 54.824219 89.917969 57.84375 92.574219 63.574219 91.488281 C 63.472656 89.851562 63.703125 88.261719 64.269531 86.71875 C 58.054688 85.152344 49.183594 80.683594 49.183594 65.597656 C 49.179688 63.8125 49.433594 62.0625 49.945312 60.351562 C 50.460938 58.640625 51.210938 57.039062 52.199219 55.550781 C 52.582031 54.980469 52.710938 54.355469 52.589844 53.679688 C 52.285156 52.050781 52.21875 50.410156 52.386719 48.765625 C 52.558594 47.117188 52.957031 45.523438 53.585938 43.992188 C 53.953125 43.121094 54.585938 42.550781 55.488281 42.273438 C 56.515625 41.972656 60.195312 41.367188 67.167969 45.894531 C 72.890625 44.515625 78.613281 44.515625 84.335938 45.894531 C 91.304688 41.367188 94.988281 41.941406 95.984375 42.273438 C 96.886719 42.550781 97.519531 43.121094 97.882812 43.992188 C 98.515625 45.53125 98.914062 47.125 99.085938 48.777344 C 99.253906 50.433594 99.1875 52.074219 98.878906 53.710938 C 98.75 54.328125 98.859375 54.902344 99.210938 55.429688 C 100.203125 56.921875 100.953125 58.527344 101.46875 60.242188 C 101.980469 61.960938 102.234375 63.714844 102.230469 65.507812 C 102.230469 80.804688 93.417969 85.242188 87.140625 86.628906 C 87.699219 88.265625 87.921875 89.945312 87.804688 91.667969 L 87.804688 99.332031 C 87.804688 99.71875 87.734375 100.089844 87.59375 100.445312 C 87.453125 100.804688 87.25 101.125 86.988281 101.40625 C 86.722656 101.683594 86.417969 101.90625 86.066406 102.070312 C 85.71875 102.234375 85.351562 102.328125 84.96875 102.351562 Z M 84.96875 102.351562 " fill-opacity="1" fill-rule="nonzero"/></g></svg>